<svg xmlns="http://www.w3.org/2000/svg" width="104.668" height="104.856" viewBox="0 0 104.668 104.856">
  <g id="Group_76363" data-name="Group 76363" transform="translate(-2421.971 -453.782)">
    <path id="Path_1147" data-name="Path 1147" d="M2597.4,605.422h10.491q14.975,0,29.95,0c8.211.007,13.784,5.6,13.785,13.821,0,10.958.023,21.917-.01,32.875a12.967,12.967,0,0,1-9.187,12.59,13.489,13.489,0,0,1-3.786.6c-13.532.043-27.064.028-40.6.027-.19,0-.381-.02-.648-.036Zm23.694,56.177q8.42,0,16.84,0c5.991,0,9.944-3.967,9.947-9.975q0-11.4,0-22.8a6.331,6.331,0,0,0-.033-1.167,1.856,1.856,0,0,0-3.681.017,6.806,6.806,0,0,0-.029,1.167q0,11.4,0,22.8c0,3.961-2.269,6.211-6.255,6.212q-16.9,0-33.8,0c-.39,0-.782-.019-1.169.012a1.863,1.863,0,0,0,.054,3.726c.271.019.545.006.818.006Zm24.9-39.333a1.863,1.863,0,1,0-1.85-1.877A1.885,1.885,0,0,0,2645.99,622.266Z" transform="translate(-134.282 -116.074)" fill="#fff"/>
    <path id="Path_1148" data-name="Path 1148" d="M2520.943,500.082a17.99,17.99,0,0,0-3.394-7.9,16.13,16.13,0,0,0-13.015-6.549q-30.253-.111-60.507-.016a16.805,16.805,0,0,0-16.088,12.925q-.135.566-.272,1.131c-2.642-.672-5.19-3.877-5.6-7.011a9.332,9.332,0,0,1,9.464-10.8q19.662-.02,39.324,0h1.447a4.176,4.176,0,0,0,.094-.6c0-6.047.024-12.094-.008-18.141a5.6,5.6,0,0,0-11.14-.868,18.177,18.177,0,0,0-.021,2.705h-3.64a9.355,9.355,0,0,1,18.313-3.828,15.065,15.065,0,0,1,.237,2.9c.023,5.813.015,11.625.02,17.438a2.847,2.847,0,0,0,.082.393h1.312c13.225,0,26.45-.033,39.675.023a9.337,9.337,0,0,1,6.9,15.624A26.122,26.122,0,0,1,2520.943,500.082Z" fill="#fff"/>
    <path id="Path_1149" data-name="Path 1149" d="M2474.3,605.668v59.827a13.073,13.073,0,0,1-13.037-12.855q-.115-17.074-.005-34.15C2461.307,611.367,2467.411,605.409,2474.3,605.668Z" transform="translate(-30.033 -116.258)" fill="#fff"/>
    <path id="Path_1150" data-name="Path 1150" d="M2544.531,665.6h-11.1V605.82h11.1Z" transform="translate(-85.32 -116.38)" fill="#fff"/>
    <path id="Path_1151" data-name="Path 1151" d="M2461.358,850.258c2.795,2.844,5.658,5.094,9.4,5.856a20.012,20.012,0,0,0,3.945.376q29.546.034,59.091-.016a52.94,52.94,0,0,0,6.125-.708c.457,3.546-2.071,6.353-5.9,6.355q-28.785.012-57.57,0c-3.042,0-6.084.011-9.127,0a5.635,5.635,0,0,1-5.961-5.932C2461.347,854.29,2461.358,852.39,2461.358,850.258Z" transform="translate(-30.147 -303.491)" fill="#fff"/>
  </g>
</svg>
