<svg xmlns="http://www.w3.org/2000/svg" width="99.446" height="85.224" viewBox="0 0 99.446 85.224">
  <g id="Group_76364" data-name="Group 76364" transform="translate(-3169.946 -518.518)">
    <path id="Path_1152" data-name="Path 1152" d="M3269.365,573.508h-99.331c-.022-.334-.062-.653-.062-.971-.006-2.4.051-4.809-.023-7.21a3.869,3.869,0,0,1,1.783-3.594,19.414,19.414,0,0,1,4-2.1,1.774,1.774,0,0,0,1.366-2.057c-.042-10.428-.027-20.856-.024-31.284,0-4.878,2.907-7.769,7.809-7.769q34.827,0,69.655,0c4.813,0,7.731,2.92,7.732,7.738q0,15.864-.021,31.728a1.341,1.341,0,0,0,1.026,1.5,26.861,26.861,0,0,1,4.133,2.093,4.064,4.064,0,0,1,1.984,3.831C3269.3,568.062,3269.365,570.724,3269.365,573.508Zm-86.918-16.266A233.3,233.3,0,0,1,3217.793,554c.447-3.893-.781-6.39-4.085-8.157a15.431,15.431,0,0,0-3.385-1.327,44.544,44.544,0,0,0-16.056-.807,19.2,19.2,0,0,0-8.4,2.529,6.571,6.571,0,0,0-3.387,5.061C3182.32,553.239,3182.447,555.2,3182.447,557.242Zm74.49.005c0-1.789.018-3.446,0-5.1a6.563,6.563,0,0,0-2.109-4.835,11.891,11.891,0,0,0-5.451-2.8,45.179,45.179,0,0,0-16.061-.794,19.632,19.632,0,0,0-8.118,2.357,7.182,7.182,0,0,0-3.621,7.94C3233.362,554.357,3245.139,555.073,3256.937,557.247Z" fill="#fff"/>
    <path id="Path_1153" data-name="Path 1153" d="M3170.085,790.311h99.386v1.122q0,10.595,0,21.189c0,1.961-.534,2.49-2.5,2.494-.74,0-1.479,0-2.218,0-1.54-.006-1.988-.326-2.491-1.826-.88-2.625-1.771-5.246-2.607-7.885a1.151,1.151,0,0,0-1.314-.961q-38.543.037-77.087,0a1.216,1.216,0,0,0-1.386,1.02c-.843,2.675-1.778,5.321-2.635,7.991a2.088,2.088,0,0,1-2.277,1.668c-1-.038-2,.015-2.994-.016a1.69,1.69,0,0,1-1.858-1.658C3170.072,805.767,3170.085,798.082,3170.085,790.311Z" transform="translate(-0.106 -211.385)" fill="#fff"/>
  </g>
</svg>
