<svg xmlns="http://www.w3.org/2000/svg" width="87.532" height="86.013" viewBox="0 0 87.532 86.013">
  <g id="Group_76361" data-name="Group 76361" transform="translate(-1063.662 -349.436)">
    <path id="Path_1131" data-name="Path 1131" d="M1214.16,541.226h8.683c-.411.827-.805,1.569-1.146,2.334a2.176,2.176,0,0,0-.237,1.031c.444,4.564.917,9.125,1.384,13.687.012.116.043.229.075.4h14.466v5.83h-4.076l4.133,26.218h-5.829l-4.137-26.159h-17.965l-4.139,26.183h-5.83l4.125-26.163H1199.6v-5.865h14.5c.247-2.373.491-4.66.72-6.949.212-2.115.351-4.24.636-6.345a3.686,3.686,0,0,0-.466-2.511C1214.688,542.4,1214.46,541.843,1214.16,541.226Z" transform="translate(-111.062 -156.761)" fill="#fff"/>
    <path id="Path_1132" data-name="Path 1132" d="M1065.159,573.1a1.718,1.718,0,0,1-1.5-1.944c.027-4.1.007-8.2.013-12.307,0-1.365.5-1.852,1.877-1.857,1.7-.007,3.4-.009,5.1,0,1.247.008,1.764.526,1.766,1.784q.011,6.244,0,12.489c0,1.248-.526,1.757-1.781,1.771-.759.009-1.519,0-2.278.009a1.734,1.734,0,0,0-.245.046v4.323c1.348,0,2.706-.042,4.059.01a32.523,32.523,0,0,1,5.7.377,9.951,9.951,0,0,1,7.658,9.484c.051,1.943.022,3.889.015,5.834,0,1.293-.522,1.787-1.845,1.8-.326,0-.652,0-1.045,0v10.145h-2.93v-10.1h-11.648v10.112h-2.923Zm2.931,13.016h14.32a6.68,6.68,0,0,0-5.588-5.555c-2.871-.282-5.792-.062-8.732-.062Z" transform="translate(0 -169.646)" fill="#fff"/>
    <path id="Path_1133" data-name="Path 1133" d="M1440.776,577.42v-4.387c-.9,0-1.776.012-2.647,0a1.489,1.489,0,0,1-1.688-1.68q-.015-6.336,0-12.672a1.479,1.479,0,0,1,1.674-1.689q2.689-.024,5.378,0a1.483,1.483,0,0,1,1.691,1.674c.012,4.224,0,8.448.01,12.672a1.653,1.653,0,0,1-1.474,1.76v31.991h-2.879V594.969h-11.649v10.1h-2.961V594.912c-.546,0-1,.017-1.442,0-.8-.037-1.443-.471-1.432-1.25a51.38,51.38,0,0,1,.378-8.612,9.769,9.769,0,0,1,9.4-7.616C1435.649,577.37,1438.168,577.42,1440.776,577.42Zm-.016,8.7v-5.754c-2.717,0-5.391-.149-8.042.039a6.93,6.93,0,0,0-6.254,5.716Z" transform="translate(-293.999 -169.635)" fill="#fff"/>
    <path id="Path_1134" data-name="Path 1134" d="M1089.311,375.76v2.6c-4.082-.174-8.177-4.244-8.546-8.47h2.657v-2.931h-2.6c.064-3.531,3.7-8.108,8.469-8.58v2.659h2.93v-2.6c3.762-.143,8.294,4.336,8.577,8.466h-2.656v2.931h2.6c-.106,3.714-3.851,8.133-8.467,8.581V375.76Zm-5.231-10.568c2,1.5,3.865,2.95,5.8,4.307a1.715,1.715,0,0,0,1.5.166c1.565-.9,3.047-1.941,4.6-2.958l-1.634-2.425c-.987.655-1.9,1.2-2.742,1.839a1.009,1.009,0,0,1-1.481-.019c-1.388-1.114-2.841-2.147-4.3-3.235Z" transform="translate(-13.979 -7.313)" fill="#fff"/>
    <path id="Path_1135" data-name="Path 1135" d="M1383.581,349.436h14.442v17.427h-14.442Z" transform="translate(-261.488 0)" fill="#fff"/>
    <path id="Path_1136" data-name="Path 1136" d="M1383.517,469.368h27.6v5.726h-27.6Z" transform="translate(-261.436 -98.027)" fill="#fff"/>
    <path id="Path_1137" data-name="Path 1137" d="M1496.021,373.648v13.017h-8.641V373.648Z" transform="translate(-346.329 -19.79)" fill="#fff"/>
    <path id="Path_1138" data-name="Path 1138" d="M1306.44,489.027l-2.977,8.943-.156-.026c0-2.135-.006-4.27.01-6.4a.777.777,0,0,1,.228-.545c.9-.707,1.823-1.382,2.739-2.068Z" transform="translate(-195.875 -114.012)" fill="#fff"/>
    <path id="Path_1139" data-name="Path 1139" d="M1278.192,487.811c-1.226-.816-2.456-1.624-3.67-2.457a.955.955,0,0,1-.318-.524,41.192,41.192,0,0,1-1.034-4.932l5.173,7.745Z" transform="translate(-171.243 -106.634)" fill="#fff"/>
    <path id="Path_1140" data-name="Path 1140" d="M1321.6,454.789l2.338-7,.153.024c0,1.679.009,3.357-.013,5.036a.783.783,0,0,1-.289.513c-.682.545-1.387,1.06-2.084,1.585Z" transform="translate(-210.831 -80.387)" fill="#fff"/>
    <path id="Path_1141" data-name="Path 1141" d="M1322.093,515.884c1.83-3.3,2.646-4.106,4.762-4.776Z" transform="translate(-211.23 -132.144)" fill="#fff"/>
  </g>
</svg>
