<svg xmlns="http://www.w3.org/2000/svg" width="317.234" height="68.454" viewBox="0 0 317.234 68.454">
  <g id="Group_4" data-name="Group 4" transform="translate(-266.03 -486.033)">
    <g id="Group_1" data-name="Group 1" transform="translate(346.227 504.371)">
      <path id="Path_1" data-name="Path 1" d="M455.316,545.75v13.923h-3.931V528.417h3.931V542.34h12.837V528.417h3.931v31.256h-3.931V545.75Z" transform="translate(-451.385 -528.417)" fill="#fff"/>
      <path id="Path_2" data-name="Path 2" d="M510.575,561.956v.065a7.229,7.229,0,0,0,2.15,5.322,7.058,7.058,0,0,0,10.187-.044q.3-.3,1.173-1.369l3.692,1.3a11.967,11.967,0,0,1-1.911,2.455,11.407,11.407,0,0,1-16.041.055,10.793,10.793,0,0,1,0-15.476,11.446,11.446,0,0,1,16.041.043,10.378,10.378,0,0,1,2.845,7.646Zm.7-3.432h13.011q-1.391-4.04-6.473-4.04Q512.7,554.484,511.27,558.523Z" transform="translate(-482.686 -541.234)" fill="#fff"/>
      <path id="Path_3" data-name="Path 3" d="M569.024,528.417v31.256h-3.931V528.417Z" transform="translate(-515.896 -528.417)" fill="#fff"/>
      <path id="Path_4" data-name="Path 4" d="M586.33,561.956v.065a7.229,7.229,0,0,0,2.15,5.322,7.058,7.058,0,0,0,10.187-.044q.3-.3,1.173-1.369l3.692,1.3a11.955,11.955,0,0,1-1.912,2.455,11.406,11.406,0,0,1-16.041.055,10.793,10.793,0,0,1,0-15.476,11.446,11.446,0,0,1,16.041.043,10.377,10.377,0,0,1,2.846,7.646Zm.7-3.432h13.011q-1.391-4.04-6.473-4.04Q588.459,554.484,587.025,558.523Z" transform="translate(-525.665 -541.234)" fill="#fff"/>
      <path id="Path_5" data-name="Path 5" d="M644.227,558.389V573.2h-3.932V553.35h3.932q1-1.086,4.127-1.086a8.2,8.2,0,0,1,6.06,2.3,7.809,7.809,0,0,1,2.346,5.625V573.2h-3.91V560.365a4.493,4.493,0,0,0-1.369-3.355,4.341,4.341,0,0,0-6.19-.076A4.93,4.93,0,0,0,644.227,558.389Z" transform="translate(-558.56 -541.946)" fill="#fff"/>
      <path id="Path_6" data-name="Path 6" d="M686.08,541.361V528.568h3.931v12.793Z" transform="translate(-584.536 -528.503)" fill="#fff"/>
      <path id="Path_7" data-name="Path 7" d="M706.748,563.383a14.418,14.418,0,0,1-3.041-2.042,5.042,5.042,0,0,1-.044-7.341,5.268,5.268,0,0,1,3.91-1.586,5.067,5.067,0,0,1,3.779,1.455,4.506,4.506,0,0,1,1.477,3.237v.608l-3.518,1.434a6.724,6.724,0,0,0-.749-2.889,1.34,1.34,0,0,0-.988-.434,1.494,1.494,0,0,0-1.064.5,1.79,1.79,0,0,0-.5,1.325,1.887,1.887,0,0,0,.565,1.39,10.423,10.423,0,0,0,1.716,1.238,16.844,16.844,0,0,1,3.584,2.455,5.955,5.955,0,0,1,1.781,4.3,6.066,6.066,0,0,1-1.846,4.409,6.678,6.678,0,0,1-9.264,0,6.356,6.356,0,0,1-1.857-4.67l3.91-.977q0,2.52.8,3.323a2.471,2.471,0,0,0,1.781.8,2.506,2.506,0,0,0,1.792-.8,3,3,0,0,0-.054-4.17A16.819,16.819,0,0,0,706.748,563.383Z" transform="translate(-592.823 -542.031)" fill="#fff"/>
      <path id="Path_8" data-name="Path 8" d="M769.482,549.443v10.23H765.55V528.417H774.5a10.976,10.976,0,0,1,6.538,3.171,9.99,9.99,0,0,1,3.062,7.32,10.159,10.159,0,0,1-3.106,7.407,10.355,10.355,0,0,1-7.646,3.128Zm0-17.594v14.162h3.866a6.561,6.561,0,0,0,4.779-2.031,7.28,7.28,0,0,0,0-10.111,6.578,6.578,0,0,0-4.779-2.02Z" transform="translate(-629.622 -528.417)" fill="#fff"/>
      <path id="Path_9" data-name="Path 9" d="M821.19,528.417v31.256h-3.932V528.417Z" transform="translate(-658.958 -528.417)" fill="#fff"/>
      <path id="Path_10" data-name="Path 10" d="M857.846,572.49h-3.932v-3.475a7.653,7.653,0,0,1-7.081,4,10.86,10.86,0,0,1-7.982-3.269,10.793,10.793,0,0,1,0-15.476,10.879,10.879,0,0,1,7.982-3.258,7.669,7.669,0,0,1,7.081,3.954v-2.324h3.932Zm-3.932-8.906v-3.171a7.415,7.415,0,0,0-7.081-5.93,6.916,6.916,0,0,0-5.083,2.172,7.327,7.327,0,0,0-2.15,5.365,7.229,7.229,0,0,0,2.15,5.322,7.227,7.227,0,0,0,12.164-3.758Z" transform="translate(-669.354 -541.234)" fill="#fff"/>
      <path id="Path_11" data-name="Path 11" d="M911.45,566.147l3.736,1.369a22.918,22.918,0,0,1-1.759,2.172,11.406,11.406,0,0,1-16.041.055,10.792,10.792,0,0,1,0-15.476,11.448,11.448,0,0,1,15.954-.043,20.659,20.659,0,0,1,1.846,2.237l-3.736,1.39q-.782-.977-1.064-1.282a7.043,7.043,0,0,0-10.078.076,7.714,7.714,0,0,0,0,10.686,6.906,6.906,0,0,0,5.061,2.162,7,7,0,0,0,5.1-2.194Q910.669,567.1,911.45,566.147Z" transform="translate(-702.563 -541.234)" fill="#fff"/>
      <path id="Path_12" data-name="Path 12" d="M952.053,561.956v.065a7.227,7.227,0,0,0,2.151,5.322,7.058,7.058,0,0,0,10.187-.044q.3-.3,1.173-1.369l3.692,1.3a11.969,11.969,0,0,1-1.912,2.455,11.407,11.407,0,0,1-16.041.055,10.793,10.793,0,0,1,0-15.476,11.446,11.446,0,0,1,16.041.043,10.378,10.378,0,0,1,2.845,7.646Zm.7-3.432h13.011q-1.39-4.04-6.473-4.04Q954.182,554.484,952.748,558.523Z" transform="translate(-733.152 -541.234)" fill="#fff"/>
    </g>
    <line id="Line_1" data-name="Line 1" x2="0.292" transform="translate(507.24 496.898)" fill="none"/>
    <g id="Group_3" data-name="Group 3" transform="translate(266.03 486.033)">
      <path id="Path_13" data-name="Path 13" d="M358.771,526.346a34.079,34.079,0,0,1-7.323,21.159,3.073,3.073,0,0,0-2.414-2.358q.231-.268.451-.537a3.284,3.284,0,0,0-.04-4.568,2.941,2.941,0,0,0-1.481-.757c-.045-.008-.089-.015-.133-.019l-.02,0a26.621,26.621,0,0,0-3.373-30.587v-3.405a1.6,1.6,0,0,0-1.6-1.6h-4.363a26.622,26.622,0,0,0-29.637,1.191A29.591,29.591,0,0,1,358.77,526.1C358.771,526.181,358.771,526.263,358.771,526.346Z" transform="translate(-290.318 -492.119)" fill="#fff"/>
      <path id="Path_14" data-name="Path 14" d="M354.02,522.181a26.565,26.565,0,0,1-6.2,17.092l-.014-.01a26.621,26.621,0,0,0-3.373-30.587v-3.405a1.6,1.6,0,0,0-1.6-1.6h-4.363a26.622,26.622,0,0,0-29.637,1.191,29.478,29.478,0,0,1,20.324-8.105h.124a24.656,24.656,0,0,1,22.317,14.315A26.583,26.583,0,0,1,354.02,522.181Z" transform="translate(-290.318 -492.119)" fill="#fff"/>
      <path id="Path_15" data-name="Path 15" d="M333.988,519.006v-7.669h-6.225v3.724l-11.993-7.608-22.533,14.287v6.8l4.159-2.64v23.541a22.1,22.1,0,0,0,9.654-2.606,31.687,31.687,0,0,0,6.544-4.491,8.78,8.78,0,0,1,1.269-.977l-2.433-1.573c-8.337-5.39-8.337-9.2-8.337-10.636a6.009,6.009,0,0,1,11.6-2.207c.025-.064.051-.126.078-.188a6.01,6.01,0,0,1,11.521,2.4c0,1.435,0,5.246-8.336,10.635l-1.495.967a4.026,4.026,0,0,1,2.633,1.423,3.489,3.489,0,0,1,.835,3.075q1.053-.715,2.124-1.5c.7-.509,1.391-1.082,2-1.587l.051-.042c.3-.245.608-.5.918-.749.409-.329.82-.69,1.218-1.04l.1-.09a4.3,4.3,0,0,1,2.856-1.2,3.6,3.6,0,0,1,3.358,2.34l.039-.039c.048-.047.079-.077.12-.121a3.4,3.4,0,0,1,.27-.26V525.8l4.159,2.636v-6.79Z" transform="translate(-281.465 -498.185)" fill="#fff"/>
      <path id="Path_16" data-name="Path 16" d="M330.029,598.085a1.88,1.88,0,0,1-.231.629q-.356.4-.727.789a34.233,34.233,0,0,1-56.007-9.434,18.644,18.644,0,0,0,11.816,4.659c.18.009.362.016.547.02a18.856,18.856,0,0,0,4.3-.378c.443-.109.894-.233,1.344-.37h.007l.032-.011.009,0,0,0c.189-.069.419-.144.707-.23l.024-.006.007,0q.9-.31,1.829-.7.594-.25,1.2-.531l.006,0c.593-.308,1.131-.577,1.616-.811q1.047-.558,2.1-1.207l.028-.018a37.062,37.062,0,0,0,4.569-3.407,3.785,3.785,0,0,1,2.256-1.21,2.456,2.456,0,0,1,1.984.909c1.431,1.627-.526,3.555-1,3.988a36.343,36.343,0,0,1-5.069,3.977l-.026.018c-.811.514-1.673.964-2.526,1.4a39.357,39.357,0,0,0,3.971-1.641,62.23,62.23,0,0,0,9.744-5.932c.719-.524,1.41-1.093,2.079-1.645.311-.255.633-.52.952-.777.438-.353.863-.726,1.274-1.087l.1-.087a2.557,2.557,0,0,1,2.143-.774,1.988,1.988,0,0,1,1.612,2.3,2.546,2.546,0,0,1-.8,1.315,46.072,46.072,0,0,1-3.853,3.392,38.469,38.469,0,0,1-4.093,2.882c-.972.591-2.4,1.48-3.647,2.207a.406.406,0,0,0,.032.719l.009,0a.408.408,0,0,0,.372-.013c.464-.26,1.682-.947,2.169-1.236,1.478-.877,2.9-1.8,4.24-2.757,1.124-.8,2.124-1.639,3.184-2.522.18-.15.359-.3.542-.451.967-.8,1.909-1.632,2.8-2.463.535-.5,1.076-1.024,1.562-1.521l.035-.035c.061-.059.113-.109.18-.182a2.06,2.06,0,0,1,1.843-.621,1.828,1.828,0,0,1,.995.52,1.739,1.739,0,0,1,.551,1.523l-.036.187a3.793,3.793,0,0,1-.544,1.19,7.6,7.6,0,0,1-.533.659l-.043.049A47.3,47.3,0,0,1,318.2,596c-1.115.812-3.786,2.463-4.93,3.165a.407.407,0,0,0-.018.681l.058.041a.407.407,0,0,0,.446.016c.443-.267,1.091-.684,1.427-.889l.009,0,.076-.052a55.259,55.259,0,0,0,9-6.818.168.168,0,0,0,.027-.026c.51-.476,1.009-.961,1.484-1.44a2.407,2.407,0,0,1,.776-.543l.021-.01a1.676,1.676,0,0,1,.229-.075,1.512,1.512,0,0,1,.659-.031,1.8,1.8,0,0,1,.9.469,2.137,2.137,0,0,1-.077,2.975,32.964,32.964,0,0,1-3.592,3.712,55.72,55.72,0,0,1-7.382,5.427.408.408,0,0,0-.076.629l.012.01a.4.4,0,0,0,.514.059c.27-.176.623-.41.773-.5a48.21,48.21,0,0,0,5.334-3.769,32.1,32.1,0,0,0,2.445-2.169,5.066,5.066,0,0,1,.384-.347l.014-.013.014-.014a1.9,1.9,0,0,1,3.3,1.591Z" transform="translate(-270.021 -541.714)" fill="#fff"/>
      <path id="Path_17" data-name="Path 17" d="M345.524,598.085a1.88,1.88,0,0,1-.231.629q-.356.4-.727.789c-5.485,5.572-14.145,8.383-23.385,7.075a32.417,32.417,0,0,1-20.805-11.851c.18.009.362.016.547.02a18.856,18.856,0,0,0,4.3-.378c.443-.109.894-.233,1.344-.37h.007l.032-.011.009,0,0,0c.189-.069.419-.144.707-.23l.024-.006.007,0q.9-.31,1.829-.7.594-.25,1.2-.531l.006,0c.593-.308,1.131-.577,1.616-.811q1.047-.558,2.1-1.207l.028-.018a37.062,37.062,0,0,0,4.569-3.407,3.785,3.785,0,0,1,2.256-1.21,2.456,2.456,0,0,1,1.984.909c1.431,1.627-.526,3.555-1,3.988a36.343,36.343,0,0,1-5.069,3.977l-.026.018c-.811.514-1.673.964-2.526,1.4a39.357,39.357,0,0,0,3.971-1.641,62.23,62.23,0,0,0,9.744-5.932c.719-.524,1.41-1.093,2.079-1.645.311-.255.633-.52.952-.777.438-.353.863-.726,1.274-1.087l.1-.087a2.557,2.557,0,0,1,2.143-.774,1.988,1.988,0,0,1,1.612,2.3,2.546,2.546,0,0,1-.8,1.315,46.072,46.072,0,0,1-3.853,3.392,38.469,38.469,0,0,1-4.093,2.882c-.972.591-2.4,1.48-3.647,2.207a.406.406,0,0,0,.032.719l.009,0a.408.408,0,0,0,.372-.013c.464-.26,1.682-.947,2.169-1.236,1.478-.877,2.9-1.8,4.24-2.757,1.124-.8,2.124-1.639,3.184-2.522.18-.15.359-.3.542-.451.967-.8,1.909-1.632,2.8-2.463.535-.5,1.076-1.024,1.562-1.521l.035-.035c.061-.059.113-.109.18-.182a2.06,2.06,0,0,1,1.843-.621,1.828,1.828,0,0,1,.995.52,1.739,1.739,0,0,1,.551,1.523l-.036.187a3.793,3.793,0,0,1-.544,1.19,7.6,7.6,0,0,1-.533.659l-.043.049A47.3,47.3,0,0,1,333.691,596c-1.115.812-3.786,2.463-4.93,3.165a.407.407,0,0,0-.018.681l.058.041a.407.407,0,0,0,.446.016c.443-.267,1.091-.684,1.427-.889l.009,0,.076-.052a55.259,55.259,0,0,0,9-6.818.168.168,0,0,0,.027-.026c.51-.476,1.009-.961,1.484-1.44a2.407,2.407,0,0,1,.776-.543l.021-.01a1.676,1.676,0,0,1,.229-.075,1.512,1.512,0,0,1,.659-.031,1.8,1.8,0,0,1,.9.469,2.137,2.137,0,0,1-.077,2.975,32.964,32.964,0,0,1-3.592,3.712,55.72,55.72,0,0,1-7.382,5.427.408.408,0,0,0-.076.629l.012.01a.4.4,0,0,0,.514.059c.27-.176.623-.41.773-.5a48.21,48.21,0,0,0,5.334-3.769,32.1,32.1,0,0,0,2.445-2.169,5.066,5.066,0,0,1,.384-.347l.014-.013.014-.014a1.9,1.9,0,0,1,3.3,1.591Z" transform="translate(-285.515 -541.714)" fill="#fff"/>
      <path id="Path_18" data-name="Path 18" d="M323.8,495.415a31.216,31.216,0,0,0-50.144,24.5c0,.114,0,.228,0,.344s0,.229,0,.344a26.493,26.493,0,0,0,6.037,16.535h-.017c-.365-.027-.729-.069-1.089-.126a16.3,16.3,0,0,1-8.232-3.954,12.073,12.073,0,0,1-1.549-1.722,14.2,14.2,0,0,1-2.278-5.25A34.229,34.229,0,0,1,323.8,495.415Z" transform="translate(-266.03 -486.033)" fill="#fff"/>
      <path id="Path_19" data-name="Path 19" d="M280.872,519.916c0,.114,0,.228,0,.344s0,.229,0,.344a26.493,26.493,0,0,0,6.037,16.536l-.017,0a35.262,35.262,0,0,1-8.137-22.586c0-.074,0-.149,0-.224a28.407,28.407,0,0,1,26.42-28.218q1.14-.076,2.3-.076a34.106,34.106,0,0,1,23.54,9.382,31.216,31.216,0,0,0-50.144,24.5Z" transform="translate(-273.249 -486.033)" fill="#fff"/>
      <path id="Path_20" data-name="Path 20" d="M367.694,521.646v6.79l-4.159-2.636v15.171a3.4,3.4,0,0,0-.27.26c-.041.044-.072.074-.12.121l-.039.039a3.6,3.6,0,0,0-.427-.81,3.581,3.581,0,0,0-2.932-1.53,4.3,4.3,0,0,0-2.856,1.2l-.1.09c-.4.35-.809.711-1.218,1.04-.31.25-.619.5-.918.749l-.051.042c-.612.5-1.305,1.078-2,1.587q-1.07.78-2.124,1.5a3.489,3.489,0,0,0-.835-3.075,4.026,4.026,0,0,0-2.633-1.423l1.495-.967c8.336-5.389,8.336-9.2,8.336-10.635a6.01,6.01,0,0,0-11.521-2.4V507.452l11.993,7.608v-3.724h6.225v7.669Z" transform="translate(-311.012 -498.185)" fill="#fff"/>
      <g id="Group_2" data-name="Group 2" transform="translate(31.266 30.26)">
        <path id="Path_21" data-name="Path 21" d="M341.971,557.712a.6.6,0,0,1,.344-.356,3.024,3.024,0,0,1,1.972-.012h0a.6.6,0,0,1,.383.4,1.75,1.75,0,0,0,.035-.35,1.814,1.814,0,0,0-.463-1.213,2.163,2.163,0,0,0-1.828-.008,1.813,1.813,0,0,0-.47,1.221A1.772,1.772,0,0,0,341.971,557.712Z" transform="translate(-340.363 -555.972)" fill="#fff"/>
        <path id="Path_22" data-name="Path 22" d="M343.405,558.3a2.713,2.713,0,0,0-.078-.347,2.477,2.477,0,0,0-.359-.74,2.515,2.515,0,0,0-.219-.261,4.912,4.912,0,0,0-.394-.361c-.055-.046-.123-.088-.178-.137l-.006,0a1.812,1.812,0,0,1,.462,1.211,2.4,2.4,0,0,1-.585,1.439l-2.249,3.176-1.507,2.128.712,1.325.05-.07.068-.1,2.11-2.98,1.259-1.779a3.683,3.683,0,0,0,.945-2.1A2.655,2.655,0,0,0,343.405,558.3Z" transform="translate(-338.293 -556.244)" fill="#fff"/>
        <path id="Path_23" data-name="Path 23" d="M343.727,562.267l-2.249-3.177a2.4,2.4,0,0,1-.585-1.439,1.813,1.813,0,0,1,.47-1.221h0c-.056.054-.131.1-.19.149a4.84,4.84,0,0,0-.394.361,2.515,2.515,0,0,0-.219.261,2.472,2.472,0,0,0-.359.739,2.721,2.721,0,0,0-.078.347,2.656,2.656,0,0,0-.032.41,3.684,3.684,0,0,0,.945,2.1l1.259,1.779,2.11,2.98.068.1.05.07.712-1.325Z" transform="translate(-339.312 -556.232)" fill="#fff"/>
      </g>
    </g>
  </g>
</svg>
