<svg xmlns="http://www.w3.org/2000/svg" width="95.683" height="93.461" viewBox="0 0 95.683 93.461">
  <g id="Group_76362" data-name="Group 76362" transform="translate(-1962.654 42.756)">
    <path id="Path_1142" data-name="Path 1142" d="M1982.56,240.019c.431-2.043.832-3.963,1.243-5.882.508-2.369,1.046-4.732,1.517-7.108a1.889,1.889,0,0,0-.176-1.339,23.264,23.264,0,0,1-4.108-11.071c-.775-5.8-1.651-11.588-2.481-17.381-.034-.238-.037-.481-.06-.809h89.09c-.224,1.514-.449,3.006-.663,4.5-.762,5.314-1.482,10.634-2.294,15.939a18.868,18.868,0,0,1-3.519,8.453,2.125,2.125,0,0,0-.366,1.913c.872,3.955,1.718,7.915,2.566,11.875.056.263.059.537.1.91-2.006,0-3.942.026-5.876-.026a1.515,1.515,0,0,1-.9-.578q-2.781-3.231-5.51-6.507a1.391,1.391,0,0,0-1.486-.614,15.407,15.407,0,0,1-2.693.167q-23.816.013-47.632,0a10.483,10.483,0,0,1-2.382-.125,2.165,2.165,0,0,0-2.415,1.04c-1.6,2-3.313,3.916-4.939,5.9a1.885,1.885,0,0,1-1.682.76C1986.168,239.985,1984.439,240.019,1982.56,240.019Z" transform="translate(-12.538 -189.332)" fill="#fff"/>
    <path id="Path_1143" data-name="Path 1143" d="M2054.106,81.812v3.212h-7.341V93.58h11.571v6.292h-95.683V93.622h71.183V85.076h-7.3v-3.2h7.349V78.719h12.757v3.093Z" transform="translate(0 -96.156)" fill="#fff"/>
    <path id="Path_1144" data-name="Path 1144" d="M2154.865,16.7c-3.258,1.276-6.324,2.448-9.359,3.7a2.337,2.337,0,0,0-1.154,1.149c-1.25,3.032-2.421,6.1-3.714,9.4-.471-1.2-.854-2.163-1.233-3.13-.822-2.092-1.605-4.2-2.49-6.264a2.373,2.373,0,0,0-1.148-1.161c-3.034-1.251-6.1-2.42-9.381-3.7,1.549-.622,2.9-1.174,4.266-1.71,1.7-.671,3.434-1.284,5.11-2.02a2.39,2.39,0,0,0,1.149-1.158c1.25-3.035,2.421-6.1,3.695-9.354.209.471.363.783.489,1.105,1.087,2.767,2.144,5.547,3.28,8.294a2.2,2.2,0,0,0,1.088,1.076c2.874,1.189,5.779,2.306,8.673,3.448C2154.322,16.446,2154.5,16.538,2154.865,16.7Zm-14.234-5.528c-.478,1.2-.842,2.244-1.315,3.236a2.174,2.174,0,0,1-.949.95c-.988.475-2.029.839-3.229,1.319,1.163.455,2.157.767,3.073,1.233a2.825,2.825,0,0,1,1.163,1.158c.474.926.795,1.932,1.259,3.107.482-1.207.827-2.223,1.3-3.178a2.371,2.371,0,0,1,1.01-1.021c.97-.475,2-.825,3.2-1.3-1.226-.491-2.269-.855-3.258-1.332a2.167,2.167,0,0,1-.94-.954C2141.47,13.4,2141.1,12.359,2140.632,11.176Z" transform="translate(-129.605 -35.783)" fill="#fff"/>
    <path id="Path_1145" data-name="Path 1145" d="M2034.86-30.291c-2.941,1.05-5.6,2.037-8.285,2.933a1.93,1.93,0,0,0-1.356,1.367c-.9,2.652-1.859,5.285-2.884,8.175-.213-.522-.358-.838-.474-1.164-.847-2.38-1.7-4.756-2.519-7.147a1.662,1.662,0,0,0-1.147-1.179c-2.394-.8-4.766-1.671-7.145-2.52-.352-.125-.692-.284-1.186-.488,2.888-1.034,5.631-1.986,8.342-3.019a2.064,2.064,0,0,0,1.071-1.065c.913-2.392,1.734-4.818,2.591-7.231.112-.314.253-.617.463-1.126,1.033,2.9,2.015,5.582,2.934,8.285a1.751,1.751,0,0,0,1.236,1.218C2029.217-32.326,2031.913-31.341,2034.86-30.291Zm-12.548-2.781a3.3,3.3,0,0,1-2.9,2.824c1.789.106,2.492,1.248,2.974,2.772.09-1.829,1.294-2.42,2.772-2.838A3.132,3.132,0,0,1,2022.312-33.071Z" transform="translate(-37.37)" fill="#fff"/>
    <path id="Path_1146" data-name="Path 1146" d="M2347.339-.153a16.961,16.961,0,0,0,7.726-8.09,16.821,16.821,0,0,0,7.742,8.086,16.844,16.844,0,0,0-7.752,8.044A16.657,16.657,0,0,0,2347.339-.153Zm8.018,1.577-.647-.044,2.046-1.772-.172.5L2354.8-1.818l.661.218-1.738,1.387Z" transform="translate(-304.506 -27.32)" fill="#fff"/>
  </g>
</svg>
