<svg xmlns="http://www.w3.org/2000/svg" width="123.958" height="85.942" viewBox="0 0 123.958 85.942">
  <g id="Group_76365" data-name="Group 76365" transform="translate(-3743.736 -670.652)">
    <path id="Path_1154" data-name="Path 1154" d="M3750.9,714.08h3.791q48.822,0,97.643.008a27.074,27.074,0,0,1,5.567.326c5.81,1.235,9.639,6.2,9.726,12.7.111,8.3.05,16.6.018,24.9-.011,2.944-1.5,4.691-3.736,4.578-2.038-.1-3.31-1.851-3.324-4.692-.025-5.2-.007-10.391-.007-15.721H3750.8v9.608c0,2.145.026,4.29-.009,6.435-.043,2.692-1.527,4.549-3.637,4.35-2.54-.241-3.371-2.014-3.386-4.33-.008-1.306-.029-2.611-.029-3.917q.012-35.812.029-71.624c0-.466-.006-.932.006-1.4.08-3.009,1.42-4.707,3.661-4.645,2.06.057,3.355,1.778,3.359,4.63q.025,18.185.009,36.371C3750.8,712.3,3750.853,712.953,3750.9,714.08Z" transform="translate(0 0)" fill="#fff"/>
    <path id="Path_1155" data-name="Path 1155" d="M3775.185,729.142c-2.89,0-5.78-.04-8.669.015-1.889.037-2.763-.863-2.776-2.681-.019-2.89,0-5.78-.018-8.67-.013-1.944.853-2.944,2.865-2.915,3.542.051,7.093-.1,10.623.113a10,10,0,0,1,9.165,12.2,3.41,3.41,0,0,1-2.527,1.847C3780.978,729.293,3778.075,729.141,3775.185,729.142Z" transform="translate(-8.753 -19.373)" fill="#fff"/>
  </g>
</svg>
