<svg xmlns="http://www.w3.org/2000/svg" width="66.061" height="76.323" viewBox="0 0 66.061 76.323">
  <g id="Group_76359" data-name="Group 76359" transform="translate(-2083.175 -250.799)">
    <path id="Path_1115" data-name="Path 1115" d="M2083.2,488.146h66.023c.009.2.026.391.026.582q0,22.257,0,44.514a5.265,5.265,0,0,1-4.282,5.448,6.971,6.971,0,0,1-1.4.089q-27.389.007-54.778.02a5.323,5.323,0,0,1-5.433-4.094,7.571,7.571,0,0,1-.152-1.5q-.011-22.23-.006-44.46Zm9.42,35.877c.276.016.488.04.7.04q22.9,0,45.8,0c.708,0,.709,0,.709-.708q0-12.1,0-24.2c0-.706,0-.709-.7-.709q-22.927,0-45.854-.011c-.514,0-.667.128-.666.656q.025,12.125.012,24.25Z" transform="translate(-0.021 -211.678)" fill="#fff"/>
    <path id="Path_1116" data-name="Path 1116" d="M2083.176,272.353v-.517q0-7.779,0-15.558a5.234,5.234,0,0,1,4.931-5.425c4.735-.068,9.471-.051,14.207-.053q20.258,0,40.516,0a11.053,11.053,0,0,1,2.151.108,5.1,5.1,0,0,1,4.219,5.04c.059,5.4.019,10.8.018,16.206a1.14,1.14,0,0,1-.041.195Zm44.945-10.955a4.3,4.3,0,0,0-4.346-4.344,4.343,4.343,0,1,0,4.346,4.344Zm13.714,0a4.345,4.345,0,0,0-8.69-.009,4.345,4.345,0,1,0,8.69.009Z" fill="#fff"/>
    <path id="Path_1117" data-name="Path 1117" d="M2260.023,623.6c-.19-.113-.313-.177-.427-.254a12.051,12.051,0,0,0-9.518-1.833,58.553,58.553,0,0,0-8.7,2.817,28.657,28.657,0,0,1-6.492,1.721,11.574,11.574,0,0,1-8.456-2.176c-.106-.078-.238-.215-.24-.326-.016-1.4-.01-2.792-.01-4.234.745.428,1.406.856,2.107,1.2a12.234,12.234,0,0,0,8,.833,58.556,58.556,0,0,0,8.642-2.818,27.173,27.173,0,0,1,6.817-1.734,11.478,11.478,0,0,1,8.025,2.216.581.581,0,0,1,.241.378C2260.03,620.773,2260.023,622.151,2260.023,623.6Z" transform="translate(-127.539 -326.373)" fill="#fff"/>
    <path id="Path_1118" data-name="Path 1118" d="M2226.144,702.625c1.146.558,2.205,1.182,3.339,1.606a12.2,12.2,0,0,0,7.848.074c2.5-.73,4.94-1.637,7.395-2.5a32.352,32.352,0,0,1,6.223-1.706,11.627,11.627,0,0,1,8.737,2.094.661.661,0,0,1,.291.406c.022,1.379.013,2.759.013,4.183-.77-.436-1.461-.884-2.2-1.237a12.345,12.345,0,0,0-8.113-.748,61.793,61.793,0,0,0-8.232,2.711,30.412,30.412,0,0,1-6.328,1.728,11.605,11.605,0,0,1-8.679-2.117.658.658,0,0,1-.282-.414C2226.135,705.338,2226.144,703.973,2226.144,702.625Z" transform="translate(-127.506 -400.586)" fill="#fff"/>
  </g>
</svg>
