<svg id="Group_76339" data-name="Group 76339" xmlns="http://www.w3.org/2000/svg" width="72.338" height="98.813" viewBox="0 0 72.338 98.813">
  <path id="Path_1113" data-name="Path 1113" d="M785.084,306.752l45.976-6.57V399l-45.976-6.57ZM825.4,352.074a7.543,7.543,0,0,0-5.914-8.135,2.992,2.992,0,0,0-1.213-.043,7.112,7.112,0,0,0-5.659,4.971,14.292,14.292,0,0,0-.428,4.053,7.374,7.374,0,0,0,5.663,7.189,4.057,4.057,0,0,0,1.708.042A7.515,7.515,0,0,0,825.4,352.074Z" transform="translate(-785.084 -300.182)" fill="#fff"/>
  <path id="Path_1114" data-name="Path 1114" d="M1060.215,417.917h-19.593V408.1h9.741v-65.95h-9.76v-9.818h19.612Z" transform="translate(-987.877 -325.699)" fill="#fff"/>
</svg>
