<svg xmlns="http://www.w3.org/2000/svg" width="114.802" height="93.355" viewBox="0 0 114.802 93.355">
  <g id="Group_76360" data-name="Group 76360" transform="translate(0)">
    <path id="Path_1119" data-name="Path 1119" d="M519.526,216.061H496.74c-.032-.648-.043-1.115-.08-1.58a3.038,3.038,0,0,0-3.3-3.109c-3.092-.045-6.185-.071-9.278-.051a1.27,1.27,0,0,1-1.451-.943c-3.475-10.288-2.373-20.012,3.525-29.175.487-.757.969-.627,1.637-.372a64.9,64.9,0,0,0,21.654,4.3,67.525,67.525,0,0,0,25.2-4.229,1.6,1.6,0,0,1,2.3.744,30.7,30.7,0,0,1,5.064,16.212c.033,3.983-.343,7.97-.553,11.954-.055,1.05-.6,1.4-1.7,1.4-5.357,0-10.715.091-16.072.148-3.135.034-3.973.862-4.085,4.038C519.6,215.615,519.555,215.827,519.526,216.061Z" transform="translate(-451.907 -161.284)" fill="#fff"/>
    <path id="Path_1120" data-name="Path 1120" d="M513.056,290.338a32.966,32.966,0,0,1,9.832,4.881,11.465,11.465,0,0,1,1.851,1.83c1.4,1.741,1.621,3.626.3,5.408a19.726,19.726,0,0,1-3.994,4.056c-4.923,3.65-10.595,5.783-16.411,7.516a127.509,127.509,0,0,1-41.585,4.846,120.75,120.75,0,0,1-31.36-5.065,53.411,53.411,0,0,1-14.814-6.675,22.8,22.8,0,0,1-4.505-4.1c-1.814-2.176-1.611-4.394.315-6.461,2.4-2.579,5.514-4,8.821-5.3a2.577,2.577,0,0,1,.121.573c-.405,6.2,3.049,10.172,8.057,12.763,6.122,3.168,12.484,3.012,18.694-.13.31-.157.606-.34.939-.528,3.723,7.842,9.923,11.757,18.6,12,8.63.239,15.171-3.081,19.343-10.641a52.927,52.927,0,0,0,6.14,1.315c6.131.6,11.709-.685,16.1-5.364,2.385-2.539,3.9-5.431,3.567-9.048C513.013,291.65,513.056,291.084,513.056,290.338Z" transform="translate(-411.115 -225.633)" fill="#fff"/>
    <path id="Path_1121" data-name="Path 1121" d="M525.464,271.931c5.142,0,10.284-.013,15.426.007,1.717.007,1.825.134,1.807,1.772q-.1,8.548-.216,17.095a7.814,7.814,0,0,1-3.289,6.392c-1.461,1.036-3.563,1.3-5.428,1.619a43.316,43.316,0,0,1-21.743-2.007,3.341,3.341,0,0,1-1.431-1.019,10.1,10.1,0,0,1-2.386-6.852c.15-5.174.157-10.352.229-15.528.024-1.754.143-1.863,1.867-1.862h15.164Z" transform="translate(-468.061 -214.611)" fill="#fff"/>
    <path id="Path_1122" data-name="Path 1122" d="M471.5,262.371c-.19.023-.4.059-.609.071-2.545.146-3.641,1.3-3.673,3.883-.06,4.91-.162,9.82-.131,14.73.008,1.318-.458,1.8-1.689,2.036a38.6,38.6,0,0,1-20.185-1.5A2.881,2.881,0,0,1,444,280.7a8.814,8.814,0,0,1-2.078-6.01c.123-4.473.175-8.95.188-13.425,0-1.1.391-1.412,1.458-1.4,8.749.127,17.5.209,26.248.3C471.723,260.191,471.833,260.328,471.5,262.371Z" transform="translate(-429.183 -207.759)" fill="#fff"/>
    <path id="Path_1123" data-name="Path 1123" d="M580.374,262.768c0-.565.03-.914-.006-1.256-.106-1.031.361-1.346,1.366-1.354q13.386-.1,26.771-.3c1.125-.017,1.4.411,1.406,1.449q.032,6.844.184,13.687a8.789,8.789,0,0,1-2.265,5.944,2.2,2.2,0,0,1-.942.636,38.975,38.975,0,0,1-18.777,1.758,6.315,6.315,0,0,1-.835-.241c0-4.473,0-8.9,0-13.326,0-1.13.08-2.26.052-3.389-.059-2.348-1.344-3.587-3.689-3.611C582.607,262.76,581.57,262.768,580.374,262.768Z" transform="translate(-510.384 -207.756)" fill="#fff"/>
    <path id="Path_1124" data-name="Path 1124" d="M498.786,160.851a30.612,30.612,0,0,1,15.528-9.97c.294-.08.6-.129.883-.233a1.924,1.924,0,0,1,2.429.715,5.861,5.861,0,0,0,8.945-.154,1.676,1.676,0,0,1,1.98-.63,30.729,30.729,0,0,1,16.7,10.244C529.7,166.471,514.366,166.705,498.786,160.851Z" transform="translate(-462.539 -143.594)" fill="#fff"/>
    <path id="Path_1125" data-name="Path 1125" d="M425.191,186.715a6.16,6.16,0,0,1,7.926.06c1.458,1.166,2.879,2.4,4.439,3.415,3.351,2.184,5.695,2.579,9.7,1.818a35.739,35.739,0,0,0,.6,21.738,8.889,8.889,0,0,1-5.377-.9,13.773,13.773,0,0,1-8.217-11.685c-.368-3.543-2.068-6.3-4.238-8.893C428.47,190.411,426.844,188.609,425.191,186.715Z" transform="translate(-419.371 -164.022)" fill="#fff"/>
    <path id="Path_1126" data-name="Path 1126" d="M627.428,188.008l-1.406-3.154c5.99-4.414,15.32-2.046,19.062,4.8a13.164,13.164,0,0,1,.6,11.814,23.5,23.5,0,0,1-8.117,10.173,3.357,3.357,0,0,1-1.781.571c-2.259.066-4.521.026-6.962.026l.37-1.536c4.16.561,7-1.616,9.49-4.369s4.531-5.779,4.607-9.675a10.1,10.1,0,0,0-14.562-9.32C628.339,187.529,627.96,187.735,627.428,188.008Z" transform="translate(-537.171 -162.445)" fill="#fff"/>
    <path id="Path_1127" data-name="Path 1127" d="M546.03,137.582a3.7,3.7,0,1,1,3.716,3.728A3.733,3.733,0,0,1,546.03,137.582Z" transform="translate(-490.251 -133.833)" fill="#fff"/>
    <path id="Path_1128" data-name="Path 1128" d="M522.712,338.337a44.832,44.832,0,0,0,20.968,1.039C540.388,342.487,527.964,343.045,522.712,338.337Z" transform="translate(-476.573 -253.787)" fill="#fff"/>
    <path id="Path_1129" data-name="Path 1129" d="M598.8,319.722a48.26,48.26,0,0,0,16.029-.93C609.656,321.763,604.294,321.728,598.8,319.722Z" transform="translate(-521.206 -242.323)" fill="#fff"/>
    <path id="Path_1130" data-name="Path 1130" d="M472.65,319.529c-5.474,2.175-10.837,2.117-16.038-.865,1.733.292,3.458.659,5.2.855a48.543,48.543,0,0,0,5.457.329C469.063,319.847,470.857,319.643,472.65,319.529Z" transform="translate(-437.802 -242.248)" fill="#fff"/>
  </g>
</svg>
